<?xml version="1.0" encoding="UTF-8" standalone="no"?>
<!DOCTYPE svg PUBLIC "-//W3C//DTD SVG 1.1//EN" "http://www.w3.org/Graphics/SVG/1.1/DTD/svg11.dtd">
<svg width="100%" height="100%" viewBox="0 0 24 24" version="1.1" xmlns="http://www.w3.org/2000/svg" xmlns:xlink="http://www.w3.org/1999/xlink" xml:space="preserve" style="fill-rule:evenodd;clip-rule:evenodd;stroke-linejoin:round;stroke-miterlimit:1.41421;">
    <g transform="matrix(2.96477,0,0,2.96477,0.1574,0.124444)">
        <path d="M4.5,0C3.29,0 2.23,0.86 2,2C0.9,2 0,2.9 0,4C0,4.37 0.11,4.71 0.28,5L3,5L3,4.5C3,3.67 3.67,3 4.5,3C5.33,3 6,3.67 6,4.5L6,5L7.91,5C7.97,4.84 8,4.68 8,4.5C8,3.85 7.58,3.21 7,3L7,2.5C7,1.12 5.88,0 4.5,0ZM4.34,4C4.128,4.071 3.988,4.277 4,4.5L4,6L2.5,6L4.5,8L6.5,6L5,6L5,4.5C5,4.497 5,4.495 5,4.492C5,4.218 4.774,3.992 4.5,3.992C4.47,3.992 4.44,3.995 4.41,4C4.39,3.999 4.37,3.999 4.35,4L4.34,4Z" style="fill:rgb(3,0,200);fill-rule:nonzero;"/>
    </g>
</svg>
