<?xml version="1.0" encoding="UTF-8" standalone="no"?>
<!DOCTYPE svg PUBLIC "-//W3C//DTD SVG 1.1//EN" "http://www.w3.org/Graphics/SVG/1.1/DTD/svg11.dtd">
<svg width="100%" height="100%" viewBox="0 0 8 8" version="1.1" xmlns="http://www.w3.org/2000/svg" xmlns:xlink="http://www.w3.org/1999/xlink" xml:space="preserve" style="fill-rule:evenodd;clip-rule:evenodd;stroke-linecap:round;stroke-linejoin:round;stroke-miterlimit:1.5;">
    <g transform="matrix(0.945098,0,0,0.944235,0.21609,0.216756)">
        <path d="M7.988,0.558C7.988,0.253 7.741,0.006 7.437,0.006L0.545,0.006C0.241,0.006 -0.006,0.253 -0.006,0.558L-0.006,7.448C-0.006,7.753 0.241,8 0.545,8L7.437,8C7.741,8 7.988,7.753 7.988,7.448L7.988,0.558Z" style="fill:none;stroke:black;stroke-width:0.42px;"/>
    </g>
    <g transform="matrix(1,0,0,1,0.493976,0.493976)">
        <path d="M3.5,0L2,1.5L3,1.5L3,3L1.5,3L1.5,2L0,3.5L1.5,5L1.5,4L3,4L3,5.5L2,5.5L3.5,7L5,5.5L4,5.5L4,4L5.5,4L5.5,5L7,3.5L5.5,2L5.5,3L4,3L4,1.5L5,1.5L3.5,0Z" style="fill:rgb(51,51,51);fill-rule:nonzero;"/>
    </g>
</svg>
