<?xml version="1.0" encoding="UTF-8" standalone="no"?>
<!DOCTYPE svg PUBLIC "-//W3C//DTD SVG 1.1//EN" "http://www.w3.org/Graphics/SVG/1.1/DTD/svg11.dtd">
<svg width="100%" height="100%" viewBox="0 0 128 128" version="1.1" xmlns="http://www.w3.org/2000/svg" xmlns:xlink="http://www.w3.org/1999/xlink" xml:space="preserve" xmlns:serif="http://www.serif.com/" style="fill-rule:evenodd;clip-rule:evenodd;stroke-linejoin:round;stroke-miterlimit:1.41421;">
    <g transform="matrix(1.13727,7.71661e-17,0,1,-15.3798,-48.6781)">
        <rect x="22" y="59.5" width="94" height="7"/>
    </g>
    <g transform="matrix(1.13727,7.71661e-17,0,1,-15.197,-48.6781)">
        <rect x="22" y="59.5" width="94" height="7"/>
    </g>
    <g transform="matrix(1.13727,7.71661e-17,0,1,-15.197,19.7998)">
        <rect x="22" y="59.5" width="94" height="7"/>
    </g>
    <g transform="matrix(1.13727,7.71661e-17,0,1,-15.3074,-14.4391)">
        <rect x="22" y="59.5" width="94" height="7"/>
    </g>
    <g transform="matrix(1.46804e-16,-1.13727,1,6.12323e-17,-49.7875,143.46)">
        <rect x="22" y="59.5" width="94" height="7"/>
    </g>
    <g transform="matrix(1.46804e-16,-1.13727,1,6.12323e-17,-15.7875,142.745)">
        <rect x="22" y="59.5" width="94" height="7"/>
    </g>
    <g transform="matrix(1.46804e-16,-1.13727,1,6.12323e-17,17.2125,143.798)">
        <rect x="22" y="59.5" width="94" height="7"/>
    </g>
    <g transform="matrix(1.46804e-16,-1.13727,1,6.12323e-17,50.2125,143.46)">
        <rect x="22" y="59.5" width="94" height="7"/>
    </g>
    <g transform="matrix(1.13727,7.71661e-17,0,1,-15.368,52.2777)">
        <rect x="22" y="59.5" width="94" height="7"/>
    </g>
</svg>
