<?xml version="1.0" encoding="UTF-8" standalone="no"?>
<!DOCTYPE svg PUBLIC "-//W3C//DTD SVG 1.1//EN" "http://www.w3.org/Graphics/SVG/1.1/DTD/svg11.dtd">
<svg width="100%" height="100%" viewBox="0 0 128 128" version="1.1" xmlns="http://www.w3.org/2000/svg" xmlns:xlink="http://www.w3.org/1999/xlink" xml:space="preserve" xmlns:serif="http://www.serif.com/" style="fill-rule:evenodd;clip-rule:evenodd;stroke-linejoin:round;stroke-miterlimit:1.41421;">
    <g transform="matrix(2.21554,0,0,2.21554,-19.5236,-28.4486)">
        <path d="M21,16C25.415,16 29,19.585 29,24C29,28.415 25.415,32 21,32C16.585,32 13,28.415 13,24C13,19.585 16.585,16 21,16ZM21,21.6C22.325,21.6 23.4,22.675 23.4,24C23.4,25.325 22.325,26.4 21,26.4C19.675,26.4 18.6,25.325 18.6,24C18.6,22.675 19.675,21.6 21,21.6Z"/>
    </g>
    <g transform="matrix(2.21554,0,0,2.21554,-19.8785,48.5573)">
        <path d="M21,16C25.415,16 29,19.585 29,24C29,28.415 25.415,32 21,32C16.585,32 13,28.415 13,24C13,19.585 16.585,16 21,16ZM21,21.6C22.325,21.6 23.4,22.675 23.4,24C23.4,25.325 22.325,26.4 21,26.4C19.675,26.4 18.6,25.325 18.6,24C18.6,22.675 19.675,21.6 21,21.6Z"/>
    </g>
    <g transform="matrix(2.21554,0,0,2.21554,55.4906,48.0367)">
        <path d="M21,16C25.415,16 29,19.585 29,24C29,28.415 25.415,32 21,32C16.585,32 13,28.415 13,24C13,19.585 16.585,16 21,16ZM21,21.6C22.325,21.6 23.4,22.675 23.4,24C23.4,25.325 22.325,26.4 21,26.4C19.675,26.4 18.6,25.325 18.6,24C18.6,22.675 19.675,21.6 21,21.6Z"/>
    </g>
    <g transform="matrix(2.21554,0,0,2.21554,54.6356,-27.9834)">
        <path d="M21,16C25.415,16 29,19.585 29,24C29,28.415 25.415,32 21,32C16.585,32 13,28.415 13,24C13,19.585 16.585,16 21,16ZM21,21.6C22.325,21.6 23.4,22.675 23.4,24C23.4,25.325 22.325,26.4 21,26.4C19.675,26.4 18.6,25.325 18.6,24C18.6,22.675 19.675,21.6 21,21.6Z"/>
    </g>
    <g transform="matrix(0.637266,4.324e-17,0,1,19.6202,38.3219)">
        <rect x="22" y="59.5" width="94" height="7"/>
    </g>
    <g transform="matrix(0.637266,4.324e-17,0,1,19.6202,-38.6781)">
        <rect x="22" y="59.5" width="94" height="7"/>
    </g>
    <g transform="matrix(0,0.644429,-1,1.11022e-16,89.9297,20.719)">
        <rect x="22" y="59.5" width="94" height="7"/>
    </g>
    <g transform="matrix(0,0.644429,-1,1.11022e-16,164.93,18.719)">
        <rect x="22" y="59.5" width="94" height="7"/>
    </g>
</svg>
