<?xml version="1.0" encoding="UTF-8" standalone="no"?>
<!DOCTYPE svg PUBLIC "-//W3C//DTD SVG 1.1//EN" "http://www.w3.org/Graphics/SVG/1.1/DTD/svg11.dtd">
<svg width="100%" height="100%" viewBox="0 0 128 128" version="1.1" xmlns="http://www.w3.org/2000/svg" xmlns:xlink="http://www.w3.org/1999/xlink" xml:space="preserve" xmlns:serif="http://www.serif.com/" style="fill-rule:evenodd;clip-rule:evenodd;stroke-linejoin:round;stroke-miterlimit:1.41421;">
    <g transform="matrix(1.08491,0,0,1.08491,-10.2736,-7.4434)">
        <path d="M69.5,17L80.033,55.081L118.479,53.622L86.542,75.699L99.771,112.878L69.5,88.441L39.229,112.878L52.458,75.699L20.521,53.622L58.967,55.081L69.5,17Z" style="fill:rgb(255,254,254);fill-opacity:0;"/>
        <path d="M80.033,55.081L118.479,53.622L86.542,75.699L99.771,112.878L69.5,88.441L39.229,112.878L52.458,75.699L20.521,53.622L58.967,55.081L69.5,17L80.033,55.081ZM61.714,58.836L32.899,57.743L56.833,74.287L47.003,101.913L69.5,83.752L91.997,101.913L82.167,74.287L106.101,57.743L77.286,58.836L69.5,30.687L61.714,58.836Z"/>
    </g>
    <g transform="matrix(1.1668,0,0,1.1668,-7.20855,-7.00925)">
        <circle cx="61.995" cy="66.005" r="5.995" style="fill:rgb(255,254,254);fill-opacity:0;"/>
        <path d="M62.073,60.01L62.15,60.011L62.227,60.014L62.304,60.017L62.38,60.021L62.456,60.027L62.532,60.033L62.608,60.04L62.683,60.048L62.759,60.057L62.833,60.067L62.908,60.078L62.982,60.09L63.056,60.103L63.13,60.117L63.203,60.131L63.276,60.147L63.349,60.163L63.421,60.18L63.493,60.198L63.565,60.217L63.636,60.237L63.707,60.257L63.777,60.279L63.848,60.301L63.917,60.324L63.987,60.348L64.056,60.373L64.125,60.399L64.193,60.425L64.261,60.453L64.328,60.481L64.395,60.51L64.462,60.539L64.528,60.57L64.594,60.601L64.659,60.633L64.724,60.666L64.788,60.699L64.852,60.733L64.916,60.768L64.979,60.804L65.041,60.841L65.103,60.878L65.165,60.916L65.226,60.954L65.286,60.994L65.346,61.034L65.406,61.075L65.465,61.116L65.524,61.158L65.582,61.201L65.639,61.244L65.696,61.289L65.752,61.334L65.808,61.379L65.863,61.425L65.918,61.472L65.972,61.519L66.026,61.568L66.079,61.616L66.131,61.666L66.183,61.716L66.234,61.766L66.284,61.817L66.334,61.869L66.384,61.921L66.432,61.974L66.481,62.028L66.528,62.082L66.575,62.137L66.621,62.192L66.666,62.248L66.711,62.304L66.756,62.361L66.799,62.418L66.842,62.476L66.884,62.535L66.925,62.594L66.966,62.654L67.006,62.714L67.046,62.774L67.084,62.835L67.122,62.897L67.159,62.959L67.196,63.021L67.232,63.084L67.267,63.148L67.301,63.212L67.334,63.276L67.367,63.341L67.399,63.406L67.43,63.472L67.461,63.538L67.49,63.605L67.519,63.672L67.547,63.739L67.575,63.807L67.601,63.875L67.627,63.944L67.652,64.013L67.676,64.083L67.699,64.152L67.721,64.223L67.743,64.293L67.763,64.364L67.783,64.435L67.802,64.507L67.82,64.579L67.837,64.651L67.853,64.724L67.869,64.797L67.883,64.87L67.897,64.944L67.91,65.018L67.922,65.092L67.933,65.167L67.943,65.241L67.952,65.317L67.96,65.392L67.967,65.468L67.973,65.544L67.979,65.62L67.983,65.696L67.986,65.773L67.989,65.85L67.99,65.927L67.991,66.005L67.99,66.082L67.989,66.159L67.986,66.236L67.983,66.313L67.979,66.389L67.973,66.466L67.967,66.542L67.96,66.617L67.952,66.693L67.943,66.768L67.933,66.843L67.922,66.917L67.91,66.991L67.897,67.065L67.883,67.139L67.869,67.212L67.853,67.285L67.837,67.358L67.82,67.43L67.802,67.502L67.783,67.574L67.763,67.645L67.743,67.716L67.721,67.787L67.699,67.857L67.676,67.927L67.652,67.996L67.627,68.065L67.601,68.134L67.575,68.202L67.547,68.27L67.519,68.337L67.49,68.404L67.461,68.471L67.43,68.537L67.399,68.603L67.367,68.668L67.334,68.733L67.301,68.797L67.267,68.861L67.232,68.925L67.196,68.988L67.159,69.05L67.122,69.112L67.084,69.174L67.046,69.235L67.006,69.296L66.966,69.356L66.925,69.415L66.884,69.474L66.842,69.533L66.799,69.591L66.756,69.648L66.711,69.705L66.666,69.762L66.621,69.817L66.575,69.873L66.528,69.927L66.481,69.981L66.432,70.035L66.384,70.088L66.334,70.14L66.284,70.192L66.234,70.243L66.183,70.294L66.131,70.344L66.079,70.393L66.026,70.442L65.972,70.49L65.918,70.537L65.863,70.584L65.808,70.63L65.752,70.676L65.696,70.721L65.639,70.765L65.582,70.808L65.524,70.851L65.465,70.893L65.406,70.935L65.346,70.975L65.286,71.016L65.226,71.055L65.165,71.094L65.103,71.132L65.041,71.169L64.979,71.205L64.916,71.241L64.852,71.276L64.788,71.31L64.724,71.344L64.659,71.376L64.594,71.408L64.528,71.44L64.462,71.47L64.395,71.5L64.328,71.529L64.261,71.557L64.193,71.584L64.125,71.61L64.056,71.636L63.987,71.661L63.917,71.685L63.848,71.708L63.777,71.73L63.707,71.752L63.636,71.772L63.565,71.792L63.493,71.811L63.421,71.829L63.349,71.846L63.276,71.863L63.203,71.878L63.13,71.893L63.056,71.906L62.982,71.919L62.908,71.931L62.833,71.942L62.759,71.952L62.683,71.961L62.608,71.969L62.532,71.976L62.456,71.983L62.38,71.988L62.304,71.992L62.227,71.996L62.15,71.998L62.073,72L61.995,72L61.918,72L61.841,71.998L61.764,71.996L61.687,71.992L61.611,71.988L61.534,71.983L61.458,71.976L61.383,71.969L61.307,71.961L61.232,71.952L61.157,71.942L61.083,71.931L61.009,71.919L60.935,71.906L60.861,71.893L60.788,71.878L60.715,71.863L60.642,71.846L60.57,71.829L60.498,71.811L60.426,71.792L60.355,71.772L60.284,71.752L60.213,71.73L60.143,71.708L60.073,71.685L60.004,71.661L59.935,71.636L59.866,71.61L59.798,71.584L59.73,71.557L59.663,71.529L59.596,71.5L59.529,71.47L59.463,71.44L59.397,71.408L59.332,71.376L59.267,71.344L59.203,71.31L59.139,71.276L59.075,71.241L59.012,71.205L58.95,71.169L58.888,71.132L58.826,71.094L58.765,71.055L58.704,71.016L58.644,70.975L58.585,70.935L58.526,70.893L58.467,70.851L58.409,70.808L58.352,70.765L58.295,70.721L58.238,70.676L58.183,70.63L58.127,70.584L58.073,70.537L58.019,70.49L57.965,70.442L57.912,70.393L57.86,70.344L57.808,70.294L57.757,70.243L57.706,70.192L57.656,70.14L57.607,70.088L57.558,70.035L57.51,69.981L57.463,69.927L57.416,69.873L57.37,69.817L57.324,69.762L57.279,69.705L57.235,69.648L57.192,69.591L57.149,69.533L57.107,69.474L57.065,69.415L57.025,69.356L56.984,69.296L56.945,69.235L56.906,69.174L56.868,69.112L56.831,69.05L56.795,68.988L56.759,68.925L56.724,68.861L56.69,68.797L56.656,68.733L56.624,68.668L56.592,68.603L56.56,68.537L56.53,68.471L56.5,68.404L56.471,68.337L56.443,68.27L56.416,68.202L56.39,68.134L56.364,68.065L56.339,67.996L56.315,67.927L56.292,67.857L56.27,67.787L56.248,67.716L56.228,67.645L56.208,67.574L56.189,67.502L56.171,67.43L56.154,67.358L56.137,67.285L56.122,67.212L56.107,67.139L56.094,67.065L56.081,66.991L56.069,66.917L56.058,66.843L56.048,66.768L56.039,66.693L56.031,66.617L56.024,66.542L56.017,66.466L56.012,66.389L56.008,66.313L56.004,66.236L56.002,66.159L56,66.082L56,66.005L56,65.927L56.002,65.85L56.004,65.773L56.008,65.696L56.012,65.62L56.017,65.544L56.024,65.468L56.031,65.392L56.039,65.317L56.048,65.241L56.058,65.167L56.069,65.092L56.081,65.018L56.094,64.944L56.107,64.87L56.122,64.797L56.137,64.724L56.154,64.651L56.171,64.579L56.189,64.507L56.208,64.435L56.228,64.364L56.248,64.293L56.27,64.223L56.292,64.152L56.315,64.083L56.339,64.013L56.364,63.944L56.39,63.875L56.416,63.807L56.443,63.739L56.471,63.672L56.5,63.605L56.53,63.538L56.56,63.472L56.592,63.406L56.624,63.341L56.656,63.276L56.69,63.212L56.724,63.148L56.759,63.084L56.795,63.021L56.831,62.959L56.868,62.897L56.906,62.835L56.945,62.774L56.984,62.714L57.025,62.654L57.065,62.594L57.107,62.535L57.149,62.476L57.192,62.418L57.235,62.361L57.279,62.304L57.324,62.248L57.37,62.192L57.416,62.137L57.463,62.082L57.51,62.028L57.558,61.974L57.607,61.921L57.656,61.869L57.706,61.817L57.757,61.766L57.808,61.716L57.86,61.666L57.912,61.616L57.965,61.568L58.019,61.519L58.073,61.472L58.127,61.425L58.183,61.379L58.238,61.334L58.295,61.289L58.352,61.244L58.409,61.201L58.467,61.158L58.526,61.116L58.585,61.075L58.644,61.034L58.704,60.994L58.765,60.954L58.826,60.916L58.888,60.878L58.95,60.841L59.012,60.804L59.075,60.768L59.139,60.733L59.203,60.699L59.267,60.666L59.332,60.633L59.397,60.601L59.463,60.57L59.529,60.539L59.596,60.51L59.663,60.481L59.73,60.453L59.798,60.425L59.866,60.399L59.935,60.373L60.004,60.348L60.073,60.324L60.143,60.301L60.213,60.279L60.284,60.257L60.355,60.237L60.426,60.217L60.498,60.198L60.57,60.18L60.642,60.163L60.715,60.147L60.788,60.131L60.861,60.117L60.935,60.103L61.009,60.09L61.083,60.078L61.157,60.067L61.232,60.057L61.307,60.048L61.383,60.04L61.458,60.033L61.534,60.027L61.611,60.021L61.687,60.017L61.764,60.014L61.841,60.011L61.918,60.01L61.995,60.009L62.073,60.01ZM61.945,62.152L61.895,62.153L61.845,62.155L61.796,62.157L61.746,62.16L61.697,62.163L61.648,62.167L61.6,62.172L61.551,62.177L61.503,62.183L61.455,62.189L61.407,62.196L61.359,62.204L61.312,62.212L61.265,62.221L61.218,62.23L61.171,62.24L61.125,62.251L61.078,62.262L61.032,62.273L60.986,62.285L60.941,62.298L60.895,62.311L60.85,62.325L60.805,62.339L60.761,62.354L60.716,62.369L60.672,62.385L60.628,62.402L60.584,62.418L60.541,62.436L60.498,62.454L60.455,62.472L60.412,62.491L60.37,62.511L60.328,62.531L60.286,62.551L60.244,62.572L60.203,62.594L60.162,62.616L60.121,62.638L60.081,62.661L60.04,62.685L60,62.709L59.961,62.733L59.922,62.758L59.883,62.783L59.844,62.809L59.806,62.835L59.768,62.862L59.73,62.889L59.693,62.917L59.656,62.945L59.619,62.973L59.583,63.002L59.547,63.031L59.511,63.061L59.476,63.091L59.441,63.122L59.406,63.153L59.372,63.184L59.338,63.216L59.305,63.249L59.272,63.281L59.239,63.314L59.207,63.348L59.175,63.381L59.144,63.416L59.113,63.45L59.082,63.485L59.052,63.52L59.022,63.556L58.993,63.592L58.964,63.628L58.935,63.665L58.907,63.702L58.88,63.739L58.853,63.777L58.826,63.815L58.8,63.853L58.774,63.892L58.749,63.931L58.724,63.97L58.699,64.01L58.675,64.05L58.652,64.09L58.629,64.13L58.607,64.171L58.585,64.212L58.563,64.253L58.542,64.295L58.522,64.337L58.502,64.379L58.482,64.421L58.463,64.464L58.445,64.507L58.427,64.55L58.409,64.594L58.392,64.637L58.376,64.681L58.36,64.726L58.345,64.77L58.33,64.815L58.316,64.859L58.302,64.905L58.289,64.95L58.276,64.996L58.264,65.041L58.252,65.087L58.241,65.134L58.231,65.18L58.221,65.227L58.212,65.274L58.203,65.321L58.195,65.369L58.187,65.416L58.18,65.464L58.174,65.512L58.168,65.56L58.163,65.609L58.158,65.657L58.154,65.706L58.151,65.756L58.148,65.805L58.146,65.854L58.144,65.904L58.143,65.954L58.143,66.005L58.143,66.055L58.144,66.105L58.146,66.155L58.148,66.204L58.151,66.254L58.154,66.303L58.158,66.352L58.163,66.401L58.168,66.449L58.174,66.497L58.18,66.545L58.187,66.593L58.195,66.641L58.203,66.688L58.212,66.735L58.221,66.782L58.231,66.829L58.241,66.875L58.252,66.922L58.264,66.968L58.276,67.014L58.289,67.059L58.302,67.105L58.316,67.15L58.33,67.195L58.345,67.239L58.36,67.284L58.376,67.328L58.392,67.372L58.409,67.416L58.427,67.459L58.445,67.502L58.463,67.545L58.482,67.588L58.502,67.63L58.522,67.672L58.542,67.714L58.563,67.756L58.585,67.797L58.607,67.838L58.629,67.879L58.652,67.919L58.675,67.96L58.699,68L58.724,68.039L58.749,68.078L58.774,68.117L58.8,68.156L58.826,68.194L58.853,68.232L58.88,68.27L58.907,68.307L58.935,68.344L58.964,68.381L58.993,68.417L59.022,68.453L59.052,68.489L59.082,68.524L59.113,68.559L59.144,68.594L59.175,68.628L59.207,68.662L59.239,68.695L59.272,68.728L59.305,68.761L59.338,68.793L59.372,68.825L59.406,68.856L59.441,68.887L59.476,68.918L59.511,68.948L59.547,68.978L59.583,69.007L59.619,69.036L59.656,69.065L59.693,69.093L59.73,69.12L59.768,69.147L59.806,69.174L59.844,69.2L59.883,69.226L59.922,69.251L59.961,69.276L60,69.301L60.04,69.324L60.081,69.348L60.121,69.371L60.162,69.393L60.203,69.415L60.244,69.437L60.286,69.458L60.328,69.478L60.37,69.498L60.412,69.518L60.455,69.537L60.498,69.555L60.541,69.573L60.584,69.591L60.628,69.608L60.672,69.624L60.716,69.64L60.761,69.655L60.805,69.67L60.85,69.684L60.895,69.698L60.941,69.711L60.986,69.724L61.032,69.736L61.078,69.748L61.124,69.759L61.171,69.769L61.218,69.779L61.265,69.788L61.312,69.797L61.359,69.805L61.407,69.813L61.455,69.82L61.503,69.826L61.551,69.832L61.6,69.837L61.648,69.842L61.697,69.846L61.746,69.849L61.796,69.852L61.845,69.854L61.895,69.856L61.945,69.857L61.995,69.857L62.046,69.857L62.096,69.856L62.146,69.854L62.195,69.852L62.244,69.849L62.294,69.846L62.343,69.842L62.391,69.837L62.44,69.832L62.488,69.826L62.536,69.82L62.584,69.813L62.631,69.805L62.679,69.797L62.726,69.788L62.773,69.779L62.82,69.769L62.866,69.759L62.913,69.748L62.959,69.736L63.004,69.724L63.05,69.711L63.095,69.698L63.141,69.684L63.185,69.67L63.23,69.655L63.274,69.64L63.319,69.624L63.363,69.608L63.406,69.591L63.45,69.573L63.493,69.555L63.536,69.537L63.579,69.518L63.621,69.498L63.663,69.478L63.705,69.458L63.747,69.437L63.788,69.415L63.829,69.393L63.87,69.371L63.91,69.348L63.95,69.324L63.99,69.301L64.03,69.276L64.069,69.251L64.108,69.226L64.147,69.2L64.185,69.174L64.223,69.147L64.261,69.12L64.298,69.093L64.335,69.065L64.372,69.036L64.408,69.007L64.444,68.978L64.48,68.948L64.515,68.918L64.55,68.887L64.584,68.856L64.619,68.825L64.652,68.793L64.686,68.761L64.719,68.728L64.751,68.695L64.784,68.662L64.816,68.628L64.847,68.594L64.878,68.559L64.909,68.524L64.939,68.489L64.969,68.453L64.998,68.417L65.027,68.381L65.055,68.344L65.083,68.307L65.111,68.27L65.138,68.232L65.165,68.194L65.191,68.156L65.217,68.117L65.242,68.078L65.267,68.039L65.291,67.999L65.315,67.96L65.339,67.919L65.362,67.879L65.384,67.838L65.406,67.797L65.428,67.756L65.449,67.714L65.469,67.672L65.489,67.63L65.509,67.588L65.528,67.545L65.546,67.502L65.564,67.459L65.582,67.416L65.598,67.372L65.615,67.328L65.631,67.284L65.646,67.239L65.661,67.195L65.675,67.15L65.689,67.105L65.702,67.059L65.715,67.014L65.727,66.968L65.738,66.922L65.749,66.876L65.76,66.829L65.77,66.782L65.779,66.735L65.788,66.688L65.796,66.641L65.804,66.593L65.811,66.545L65.817,66.497L65.823,66.449L65.828,66.4L65.833,66.352L65.837,66.303L65.84,66.254L65.843,66.204L65.845,66.155L65.847,66.105L65.848,66.055L65.848,66.005L65.848,65.954L65.847,65.904L65.845,65.854L65.843,65.805L65.84,65.756L65.837,65.706L65.833,65.657L65.828,65.609L65.823,65.56L65.817,65.512L65.811,65.464L65.804,65.416L65.796,65.369L65.788,65.321L65.779,65.274L65.77,65.227L65.76,65.18L65.749,65.134L65.738,65.087L65.727,65.041L65.715,64.996L65.702,64.95L65.689,64.905L65.675,64.86L65.661,64.815L65.646,64.77L65.631,64.726L65.615,64.681L65.598,64.637L65.582,64.594L65.564,64.55L65.546,64.507L65.528,64.464L65.509,64.421L65.489,64.379L65.469,64.337L65.449,64.295L65.428,64.253L65.406,64.212L65.384,64.171L65.362,64.13L65.339,64.09L65.315,64.05L65.291,64.01L65.267,63.97L65.242,63.931L65.217,63.892L65.191,63.853L65.165,63.815L65.138,63.777L65.111,63.739L65.083,63.702L65.055,63.665L65.027,63.628L64.998,63.592L64.969,63.556L64.939,63.52L64.909,63.485L64.878,63.45L64.847,63.416L64.816,63.381L64.784,63.348L64.751,63.314L64.719,63.281L64.686,63.249L64.652,63.216L64.619,63.184L64.584,63.153L64.55,63.122L64.515,63.091L64.48,63.061L64.444,63.031L64.408,63.002L64.372,62.973L64.335,62.945L64.298,62.917L64.261,62.889L64.223,62.862L64.185,62.835L64.147,62.809L64.108,62.783L64.069,62.758L64.03,62.733L63.99,62.709L63.95,62.685L63.91,62.661L63.87,62.638L63.829,62.616L63.788,62.594L63.747,62.572L63.705,62.551L63.663,62.531L63.621,62.511L63.579,62.491L63.536,62.472L63.493,62.454L63.45,62.436L63.406,62.418L63.363,62.402L63.319,62.385L63.274,62.369L63.23,62.354L63.185,62.339L63.141,62.325L63.095,62.311L63.05,62.298L63.004,62.285L62.959,62.273L62.913,62.262L62.866,62.251L62.82,62.24L62.773,62.23L62.726,62.221L62.679,62.212L62.631,62.204L62.584,62.196L62.536,62.189L62.488,62.183L62.44,62.177L62.391,62.172L62.343,62.167L62.294,62.163L62.244,62.16L62.195,62.157L62.146,62.155L62.096,62.153L62.046,62.152L61.995,62.152L61.945,62.152Z"/>
    </g>
</svg>
