<?xml version="1.0" encoding="UTF-8" standalone="no"?>
<!DOCTYPE svg PUBLIC "-//W3C//DTD SVG 1.1//EN" "http://www.w3.org/Graphics/SVG/1.1/DTD/svg11.dtd">
<svg width="100%" height="100%" viewBox="0 0 24 24" version="1.1" xmlns="http://www.w3.org/2000/svg" xmlns:xlink="http://www.w3.org/1999/xlink" xml:space="preserve" style="fill-rule:evenodd;clip-rule:evenodd;stroke-linecap:round;stroke-miterlimit:10;">
    <g>
        <g transform="matrix(0.75,0,0,0.5,-6.75,-1.97215e-31)">
            <path d="M19,8L19,5C19,3.9 19.9,3 21,3L29,3C30.1,3 31,3.9 31,5L31,8" style="fill:none;stroke:black;stroke-width:2px;"/>
        </g>
        <g transform="matrix(0.561497,0,0,0.454545,-1.99197,0.86364)">
            <path d="M8,8L42,8" style="fill:none;stroke:black;stroke-width:2.2px;"/>
        </g>
        <g transform="matrix(0.454545,0,0,0.48,-0.863625,0.3)">
            <path d="M25,15L25,40" style="fill:none;stroke:black;stroke-width:3.21px;"/>
        </g>
        <g transform="matrix(0.454545,0,0,0.48,2.13637,0.3)">
            <path d="M25,15L25,40" style="fill:none;stroke:black;stroke-width:3.21px;"/>
        </g>
        <g transform="matrix(0.454545,0,0,0.48,2.5,0.3)">
            <path d="M31,15L31,40" style="fill:none;stroke:black;stroke-width:3.21px;"/>
        </g>
        <g transform="matrix(0.454545,0,0,0.48,-1.13636,0.3)">
            <path d="M19,15L19,40" style="fill:none;stroke:black;stroke-width:3.21px;"/>
        </g>
        <g transform="matrix(0.5,0,0,0.461538,-0.5,0.807692)">
            <path d="M40,8L40,45C40,46.1 39.1,47 38,47L12,47C10.9,47 10,46.1 10,45L10,8" style="fill:none;stroke:black;stroke-width:2.22px;"/>
        </g>
    </g>
</svg>
