<?xml version="1.0" encoding="UTF-8" standalone="no"?>
<!DOCTYPE svg PUBLIC "-//W3C//DTD SVG 1.1//EN" "http://www.w3.org/Graphics/SVG/1.1/DTD/svg11.dtd">
<svg width="100%" height="100%" viewBox="0 0 128 128" version="1.1" xmlns="http://www.w3.org/2000/svg" xmlns:xlink="http://www.w3.org/1999/xlink" xml:space="preserve" xmlns:serif="http://www.serif.com/" style="fill-rule:evenodd;clip-rule:evenodd;stroke-linejoin:round;stroke-miterlimit:1.41421;">
    <g transform="matrix(0.272589,0.6347,-0.918843,0.394622,124.851,-5.15553)">
        <rect x="22" y="59.5" width="94" height="7"/>
    </g>
    <g transform="matrix(0.733011,4.97365e-17,0,1,12.5139,38.3219)">
        <rect x="22" y="59.5" width="94" height="7"/>
    </g>
    <g transform="matrix(-0.365773,0.632047,-0.865515,-0.500884,124.274,50.629)">
        <rect x="22" y="59.5" width="94" height="7"/>
    </g>
    <g transform="matrix(2.21554,0,0,2.21554,56.4764,48.5514)">
        <path d="M21,16C25.415,16 29,19.585 29,24C29,28.415 25.415,32 21,32C16.585,32 13,28.415 13,24C13,19.585 16.585,16 21,16ZM21,21.6C22.325,21.6 23.4,22.675 23.4,24C23.4,25.325 22.325,26.4 21,26.4C19.675,26.4 18.6,25.325 18.6,24C18.6,22.675 19.675,21.6 21,21.6Z"/>
    </g>
    <g transform="matrix(2.21554,0,0,2.21554,21.4764,-30.4486)">
        <path d="M21,16C25.415,16 29,19.585 29,24C29,28.415 25.415,32 21,32C16.585,32 13,28.415 13,24C13,19.585 16.585,16 21,16ZM21,21.6C22.325,21.6 23.4,22.675 23.4,24C23.4,25.325 22.325,26.4 21,26.4C19.675,26.4 18.6,25.325 18.6,24C18.6,22.675 19.675,21.6 21,21.6Z"/>
    </g>
    <g transform="matrix(2.21554,0,0,2.21554,-24.5236,47.5514)">
        <path d="M21,16C25.415,16 29,19.585 29,24C29,28.415 25.415,32 21,32C16.585,32 13,28.415 13,24C13,19.585 16.585,16 21,16ZM21,21.6C22.325,21.6 23.4,22.675 23.4,24C23.4,25.325 22.325,26.4 21,26.4C19.675,26.4 18.6,25.325 18.6,24C18.6,22.675 19.675,21.6 21,21.6Z"/>
    </g>
</svg>
