<?xml version="1.0" encoding="UTF-8" standalone="no"?>
<!DOCTYPE svg PUBLIC "-//W3C//DTD SVG 1.1//EN" "http://www.w3.org/Graphics/SVG/1.1/DTD/svg11.dtd">
<svg width="100%" height="100%" viewBox="0 0 128 128" version="1.1" xmlns="http://www.w3.org/2000/svg" xmlns:xlink="http://www.w3.org/1999/xlink" xml:space="preserve" xmlns:serif="http://www.serif.com/" style="fill-rule:evenodd;clip-rule:evenodd;stroke-linejoin:round;stroke-miterlimit:1.41421;">
    <g transform="matrix(1.4375,0,0,1.4375,-9.6875,10)">
        <path d="M21,16C25.415,16 29,19.585 29,24C29,28.415 25.415,32 21,32C16.585,32 13,28.415 13,24C13,19.585 16.585,16 21,16ZM21,21.6C22.325,21.6 23.4,22.675 23.4,24C23.4,25.325 22.325,26.4 21,26.4C19.675,26.4 18.6,25.325 18.6,24C18.6,22.675 19.675,21.6 21,21.6Z"/>
    </g>
    <g transform="matrix(1.4375,0,0,1.4375,42.6203,-17.2969)">
        <path d="M21,16C25.415,16 29,19.585 29,24C29,28.415 25.415,32 21,32C16.585,32 13,28.415 13,24C13,19.585 16.585,16 21,16ZM21,21.578C22.337,21.578 23.422,22.663 23.422,24C23.422,25.337 22.337,26.422 21,26.422C19.663,26.422 18.578,25.337 18.578,24C18.578,22.663 19.663,21.578 21,21.578Z"/>
    </g>
    <g transform="matrix(1.4375,0,0,1.4375,34.7758,36.1469)">
        <path d="M21,16C25.415,16 29,19.585 29,24C29,28.415 25.415,32 21,32C16.585,32 13,28.415 13,24C13,19.585 16.585,16 21,16ZM21,21.572C22.34,21.572 23.428,22.66 23.428,24C23.428,25.34 22.34,26.428 21,26.428C19.66,26.428 18.572,25.34 18.572,24C18.572,22.66 19.66,21.572 21,21.572Z"/>
    </g>
    <g transform="matrix(1.4375,0,0,1.4375,0.469531,73.068)">
        <path d="M21,16C25.415,16 29,19.585 29,24C29,28.415 25.415,32 21,32C16.585,32 13,28.415 13,24C13,19.585 16.585,16 21,16ZM21,21.6C22.325,21.6 23.4,22.675 23.4,24C23.4,25.325 22.325,26.4 21,26.4C19.675,26.4 18.6,25.325 18.6,24C18.6,22.675 19.675,21.6 21,21.6Z"/>
    </g>
    <g transform="matrix(1.4375,0,0,1.4375,73.5414,71.7805)">
        <path d="M21,16C25.415,16 29,19.585 29,24C29,28.415 25.415,32 21,32C16.585,32 13,28.415 13,24C13,19.585 16.585,16 21,16ZM21,21.6C22.325,21.6 23.4,22.675 23.4,24C23.4,25.325 22.325,26.4 21,26.4C19.675,26.4 18.6,25.325 18.6,24C18.6,22.675 19.675,21.6 21,21.6Z"/>
    </g>
    <g transform="matrix(1.4375,0,0,1.4375,81.5609,14.575)">
        <path d="M21,16C25.415,16 29,19.585 29,24C29,28.415 25.415,32 21,32C16.585,32 13,28.415 13,24C13,19.585 16.585,16 21,16ZM21,21.6C22.325,21.6 23.4,22.675 23.4,24C23.4,25.325 22.325,26.4 21,26.4C19.675,26.4 18.6,25.325 18.6,24C18.6,22.675 19.675,21.6 21,21.6Z"/>
    </g>
</svg>
