<?xml version="1.0" encoding="UTF-8" standalone="no"?>
<!DOCTYPE svg PUBLIC "-//W3C//DTD SVG 1.1//EN" "http://www.w3.org/Graphics/SVG/1.1/DTD/svg11.dtd">
<svg width="100%" height="100%" viewBox="0 0 128 128" version="1.1" xmlns="http://www.w3.org/2000/svg" xmlns:xlink="http://www.w3.org/1999/xlink" xml:space="preserve" xmlns:serif="http://www.serif.com/" style="fill-rule:evenodd;clip-rule:evenodd;stroke-linejoin:round;stroke-miterlimit:1.41421;">
    <g transform="matrix(1.25243,0,0,1.25243,30.4802,40.8781)">
        <path d="M21,16C25.415,16 29,19.585 29,24C29,28.415 25.415,32 21,32C16.585,32 13,28.415 13,24C13,19.585 16.585,16 21,16ZM21,20.606C22.873,20.606 24.394,22.127 24.394,24C24.394,25.873 22.873,27.394 21,27.394C19.127,27.394 17.606,25.873 17.606,24C17.606,22.127 19.127,20.606 21,20.606Z" style="fill:rgb(220,220,220);"/>
    </g>
    <g transform="matrix(0.0883173,-0.460959,0.712049,0.136425,10.964,66.8294)">
        <rect x="22" y="59.5" width="94" height="7" style="fill:rgb(220,220,220);"/>
    </g>
    <g transform="matrix(0.27228,-0.206884,0.43862,0.577267,-6.21757,61.72)">
        <rect x="22" y="59.5" width="94" height="7" style="fill:rgb(220,220,220);"/>
    </g>
    <g transform="matrix(0.338041,0.156318,-0.304297,0.658049,73.7988,27.8972)">
        <rect x="22" y="59.5" width="94" height="7" style="fill:rgb(220,220,220);"/>
    </g>
    <g transform="matrix(1.25243,0,0,1.25243,7.5446,11.8216)">
        <path d="M21,16C25.415,16 29,19.585 29,24C29,28.415 25.415,32 21,32C16.585,32 13,28.415 13,24C13,19.585 16.585,16 21,16ZM21,20.606C22.873,20.606 24.394,22.127 24.394,24C24.394,25.873 22.873,27.394 21,27.394C19.127,27.394 17.606,25.873 17.606,24C17.606,22.127 19.127,20.606 21,20.606Z" style="fill:rgb(185,185,185);"/>
    </g>
    <g transform="matrix(1.25243,0,0,1.25243,-3.28163,66.7386)">
        <path d="M21,16C25.415,16 29,19.585 29,24C29,28.415 25.415,32 21,32C16.585,32 13,28.415 13,24C13,19.585 16.585,16 21,16ZM21,20.606C22.873,20.606 24.394,22.127 24.394,24C24.394,25.873 22.873,27.394 21,27.394C19.127,27.394 17.606,25.873 17.606,24C17.606,22.127 19.127,20.606 21,20.606Z" style="fill:rgb(185,185,185);"/>
    </g>
    <g transform="matrix(1.25243,0,0,1.25243,48.635,30.3276)">
        <path d="M21,16C25.415,16 29,19.585 29,24C29,28.415 25.415,32 21,32C16.585,32 13,28.415 13,24C13,19.585 16.585,16 21,16ZM21,20.606C22.873,20.606 24.394,22.127 24.394,24C24.394,25.873 22.873,27.394 21,27.394C19.127,27.394 17.606,25.873 17.606,24C17.606,22.127 19.127,20.606 21,20.606Z" style="fill:rgb(185,185,185);"/>
    </g>
    <g transform="matrix(1.25243,0,0,1.25243,37.8087,85.2447)">
        <path d="M21,16C25.415,16 29,19.585 29,24C29,28.415 25.415,32 21,32C16.585,32 13,28.415 13,24C13,19.585 16.585,16 21,16ZM21,20.606C22.873,20.606 24.394,22.127 24.394,24C24.394,25.873 22.873,27.394 21,27.394C19.127,27.394 17.606,25.873 17.606,24C17.606,22.127 19.127,20.606 21,20.606Z" style="fill:rgb(185,185,185);"/>
    </g>
    <g transform="matrix(1.25243,0,0,1.25243,82.1887,3.96108)">
        <path d="M21,16C25.415,16 29,19.585 29,24C29,28.415 25.415,32 21,32C16.585,32 13,28.415 13,24C13,19.585 16.585,16 21,16ZM21,20.606C22.873,20.606 24.394,22.127 24.394,24C24.394,25.873 22.873,27.394 21,27.394C19.127,27.394 17.606,25.873 17.606,24C17.606,22.127 19.127,20.606 21,20.606Z" style="fill:rgb(185,185,185);"/>
    </g>
    <g transform="matrix(1.25243,0,0,1.25243,72.1693,59.1172)">
        <path d="M21,16C25.415,16 29,19.585 29,24C29,28.415 25.415,32 21,32C16.585,32 13,28.415 13,24C13,19.585 16.585,16 21,16ZM21,20.606C22.873,20.606 24.394,22.127 24.394,24C24.394,25.873 22.873,27.394 21,27.394C19.127,27.394 17.606,25.873 17.606,24C17.606,22.127 19.127,20.606 21,20.606Z" style="fill:rgb(185,185,185);"/>
    </g>
    <g transform="matrix(1.25243,0,0,1.25243,41.3064,-14.0389)">
        <path d="M21,16C25.415,16 29,19.585 29,24C29,28.415 25.415,32 21,32C16.585,32 13,28.415 13,24C13,19.585 16.585,16 21,16ZM21,20.606C22.873,20.606 24.394,22.127 24.394,24C24.394,25.873 22.873,27.394 21,27.394C19.127,27.394 17.606,25.873 17.606,24C17.606,22.127 19.127,20.606 21,20.606Z" style="fill:rgb(185,185,185);"/>
    </g>
    <g transform="matrix(0.27228,-0.206884,0.43862,0.577267,4.60866,6.803)">
        <rect x="22" y="59.5" width="94" height="7" style="fill:rgb(185,185,185);"/>
    </g>
    <g transform="matrix(0.0883173,-0.460959,0.712049,0.136425,-22.4836,93.2144)">
        <rect x="22" y="59.5" width="94" height="7" style="fill:rgb(185,185,185);"/>
    </g>
    <g transform="matrix(0.0883173,-0.460959,0.712049,0.136425,18.6285,110.91)">
        <rect x="22" y="59.5" width="94" height="7" style="fill:rgb(185,185,185);"/>
    </g>
    <g transform="matrix(0.0883173,-0.460959,0.712049,0.136425,52.9746,84.9387)">
        <rect x="22" y="59.5" width="94" height="7" style="fill:rgb(185,185,185);"/>
    </g>
    <g transform="matrix(0.338041,0.156318,-0.304297,0.658049,49.9697,-1.11003)">
        <rect x="22" y="59.5" width="94" height="7" style="fill:rgb(185,185,185);"/>
    </g>
    <g transform="matrix(0.338041,0.156318,-0.304297,0.658049,39.1434,53.807)">
        <rect x="22" y="59.5" width="94" height="7" style="fill:rgb(185,185,185);"/>
    </g>
    <g transform="matrix(0.338041,0.156318,-0.304297,0.658049,84.6251,-27.0199)">
        <rect x="22" y="59.5" width="94" height="7" style="fill:rgb(185,185,185);"/>
    </g>
    <g transform="matrix(0.280188,-0.212893,0.43862,0.577267,45.0775,25.2215)">
        <rect x="22" y="59.5" width="94" height="7" style="fill:rgb(185,185,185);"/>
    </g>
    <g transform="matrix(0.280188,-0.212893,0.43862,0.577267,34.2513,80.1385)">
        <rect x="22" y="59.5" width="94" height="7" style="fill:rgb(185,185,185);"/>
    </g>
</svg>
