<?xml version="1.0" encoding="UTF-8" standalone="no"?>
<!DOCTYPE svg PUBLIC "-//W3C//DTD SVG 1.1//EN" "http://www.w3.org/Graphics/SVG/1.1/DTD/svg11.dtd">
<svg width="100%" height="100%" viewBox="0 0 128 128" version="1.1" xmlns="http://www.w3.org/2000/svg" xmlns:xlink="http://www.w3.org/1999/xlink" xml:space="preserve" xmlns:serif="http://www.serif.com/" style="fill-rule:evenodd;clip-rule:evenodd;stroke-linejoin:round;stroke-miterlimit:1.41421;">
    <g transform="matrix(-0.843645,7.26759e-17,0,-0.573475,122.885,117.433)">
        <rect x="22" y="59.5" width="94" height="7" style="fill:rgb(212,212,212);"/>
    </g>
    <g transform="matrix(1.55106,0,0,1.55106,30.4434,-16.0089)">
        <path d="M21,16C25.415,16 29,19.585 29,24C29,28.415 25.415,32 21,32C16.585,32 13,28.415 13,24C13,19.585 16.585,16 21,16ZM21,20.678C22.834,20.678 24.322,22.166 24.322,24C24.322,25.834 22.834,27.322 21,27.322C19.166,27.322 17.678,25.834 17.678,24C17.678,22.166 19.166,20.678 21,20.678Z" style="fill:rgb(185,185,185);"/>
    </g>
    <g transform="matrix(1.23546,0,0,1.23546,84.2178,52.1777)">
        <path d="M21,16C25.415,16 29,19.585 29,24C29,28.415 25.415,32 21,32C16.585,32 13,28.415 13,24C13,19.585 16.585,16 21,16ZM21,21.6C22.325,21.6 23.4,22.675 23.4,24C23.4,25.325 22.325,26.4 21,26.4C19.675,26.4 18.6,25.325 18.6,24C18.6,22.675 19.675,21.6 21,21.6Z" style="fill:rgb(185,185,185);"/>
    </g>
    <g transform="matrix(1.23546,0,0,1.23546,-8.00423,52.1777)">
        <path d="M21,16C25.415,16 29,19.585 29,24C29,28.415 25.415,32 21,32C16.585,32 13,28.415 13,24C13,19.585 16.585,16 21,16ZM21,21.6C22.325,21.6 23.4,22.675 23.4,24C23.4,25.325 22.325,26.4 21,26.4C19.675,26.4 18.6,25.325 18.6,24C18.6,22.675 19.675,21.6 21,21.6Z" style="fill:rgb(185,185,185);"/>
    </g>
    <g transform="matrix(1.55106,0,0,1.55106,30.5888,71.9124)">
        <path d="M21,16C25.415,16 29,19.585 29,24C29,28.415 25.415,32 21,32C16.585,32 13,28.415 13,24C13,19.585 16.585,16 21,16ZM21,21C22.656,21 24,22.344 24,24C24,25.656 22.656,27 21,27C19.344,27 18,25.656 18,24C18,22.344 19.344,21 21,21Z" style="fill:rgb(185,185,185);"/>
    </g>
    <g transform="matrix(0.426686,0.561266,-0.534257,0.406153,91.651,-12.1931)">
        <rect x="22" y="59.5" width="94" height="7" style="fill:rgb(185,185,185);"/>
    </g>
    <g transform="matrix(1.11022e-16,0.785257,-0.671112,8.32667e-17,105.441,13.1953)">
        <rect x="22" y="59.5" width="94" height="7" style="fill:rgb(185,185,185);"/>
    </g>
    <g transform="matrix(-0.4204,0.552366,-0.534034,-0.406447,103.09,39.6148)">
        <rect x="22" y="59.5" width="94" height="7" style="fill:rgb(185,185,185);"/>
    </g>
    <g transform="matrix(0.400687,0.251088,-0.35636,0.568682,34.4733,41.9433)">
        <rect x="22" y="59.5" width="94" height="7" style="fill:rgb(185,185,185);"/>
    </g>
    <g transform="matrix(0.414253,-0.228012,0.32361,0.587935,38.2043,75.4223)">
        <rect x="22" y="59.5" width="94" height="7" style="fill:rgb(185,185,185);"/>
    </g>
</svg>
