<?xml version="1.0" encoding="UTF-8" standalone="no"?>
<!DOCTYPE svg PUBLIC "-//W3C//DTD SVG 1.1//EN" "http://www.w3.org/Graphics/SVG/1.1/DTD/svg11.dtd">
<svg width="100%" height="100%" viewBox="0 0 128 128" version="1.1" xmlns="http://www.w3.org/2000/svg" xmlns:xlink="http://www.w3.org/1999/xlink" xml:space="preserve" xmlns:serif="http://www.serif.com/" style="fill-rule:evenodd;clip-rule:evenodd;stroke-linejoin:round;stroke-miterlimit:1.41421;">
    <g transform="matrix(2.3125,0,0,2.3125,-22.0625,-30)">
        <path d="M21,16C25.415,16 29,19.585 29,24C29,28.415 25.415,32 21,32C16.585,32 13,28.415 13,24C13,19.585 16.585,16 21,16ZM21,21.6C22.325,21.6 23.4,22.675 23.4,24C23.4,25.325 22.325,26.4 21,26.4C19.675,26.4 18.6,25.325 18.6,24C18.6,22.675 19.675,21.6 21,21.6Z"/>
    </g>
    <g transform="matrix(2.3125,0,0,2.3125,49.9375,46)">
        <path d="M21,16C25.415,16 29,19.585 29,24C29,28.415 25.415,32 21,32C16.585,32 13,28.415 13,24C13,19.585 16.585,16 21,16ZM21,21.592C22.329,21.592 23.408,22.671 23.408,24C23.408,25.329 22.329,26.408 21,26.408C19.671,26.408 18.592,25.329 18.592,24C18.592,22.671 19.671,21.592 21,21.592Z"/>
    </g>
    <g transform="matrix(0.641069,0.690103,-0.832656,0.773494,70.0815,-32.2762)">
        <rect x="22" y="59.5" width="94" height="7"/>
    </g>
</svg>
