<?xml version="1.0" encoding="UTF-8" standalone="no"?>
<!DOCTYPE svg PUBLIC "-//W3C//DTD SVG 1.1//EN" "http://www.w3.org/Graphics/SVG/1.1/DTD/svg11.dtd">
<svg width="100%" height="100%" viewBox="0 0 24 24" version="1.1" xmlns="http://www.w3.org/2000/svg" xmlns:xlink="http://www.w3.org/1999/xlink" xml:space="preserve" style="fill-rule:evenodd;clip-rule:evenodd;stroke-linejoin:round;stroke-miterlimit:1.41421;">
    <g transform="matrix(0.960482,0,0,0.960944,24.7969,23.0328)">
        <path d="M-3.883,-17.482C-5.971,-20.824 -9.633,-22.854 -13.573,-22.854C-17.798,-22.854 -21.679,-20.522 -23.662,-16.791L-21.168,-15.465C-19.675,-18.273 -16.754,-20.028 -13.573,-20.028C-10.607,-20.028 -7.85,-18.5 -6.279,-15.985L-3.883,-17.482Z" style="fill:rgb(10,10,20);"/>
    </g>
    <g transform="matrix(-0.591927,0.756405,-0.756768,-0.592212,-4.92906,15.5551)">
        <path d="M-5.216,-19.22C-7.377,-21.538 -10.404,-22.854 -13.573,-22.854C-17.798,-22.854 -21.679,-20.522 -23.662,-16.791L-21.112,-15.435C-19.63,-18.223 -16.73,-19.965 -13.573,-19.965C-11.205,-19.965 -8.944,-18.982 -7.329,-17.25L-5.216,-19.22Z" style="fill:rgb(10,10,10);"/>
    </g>
    <g transform="matrix(-0.590695,-0.757368,0.757732,-0.590978,12.3936,-4.97753)">
        <path d="M-3.883,-17.482C-5.971,-20.824 -9.633,-22.854 -13.573,-22.854C-16.881,-22.854 -20.027,-21.42 -22.197,-18.924L-20.061,-17.067C-18.428,-18.945 -16.062,-20.023 -13.573,-20.023C-10.609,-20.023 -7.854,-18.496 -6.283,-15.982L-3.883,-17.482Z" style="fill:rgb(10,10,10);"/>
    </g>
    <g transform="matrix(1.00389,0,0,0.581106,40.8117,13.0341)">
        <path d="M-31.888,-0.212C-31.888,-1.065 -32.288,-1.758 -32.782,-1.758L-33.993,-1.758C-34.487,-1.758 -34.888,-1.065 -34.888,-0.212L-34.888,5.769C-34.888,6.621 -34.487,7.314 -33.993,7.314L-32.782,7.314C-32.288,7.314 -31.888,6.621 -31.888,5.769L-31.888,-0.212Z"/>
    </g>
    <g transform="matrix(1.15333,0,0,1.2677,50.3117,8.0164)">
        <path d="M-31.888,-0.944C-31.888,-1.393 -32.288,-1.758 -32.782,-1.758L-33.993,-1.758C-34.487,-1.758 -34.888,-1.393 -34.888,-0.944L-34.888,6.5C-34.888,6.949 -34.487,7.314 -33.993,7.314L-32.782,7.314C-32.288,7.314 -31.888,6.949 -31.888,6.5L-31.888,-0.944Z"/>
    </g>
    <g transform="matrix(0.968,0,0,0.878741,48.6317,10.8539)">
        <path d="M-31.888,-0.772C-31.888,-1.316 -32.288,-1.758 -32.782,-1.758L-33.993,-1.758C-34.487,-1.758 -34.888,-1.316 -34.888,-0.772L-34.888,6.328C-34.888,6.872 -34.487,7.314 -33.993,7.314L-32.782,7.314C-32.288,7.314 -31.888,6.872 -31.888,6.328L-31.888,-0.772Z"/>
    </g>
</svg>
