<?xml version="1.0" encoding="UTF-8" standalone="no"?>
<!DOCTYPE svg PUBLIC "-//W3C//DTD SVG 1.1//EN" "http://www.w3.org/Graphics/SVG/1.1/DTD/svg11.dtd">
<svg width="100%" height="100%" viewBox="0 0 24 24" version="1.1" xmlns="http://www.w3.org/2000/svg" xmlns:xlink="http://www.w3.org/1999/xlink" xml:space="preserve" xmlns:serif="http://www.serif.com/" style="fill-rule:evenodd;clip-rule:evenodd;stroke-linejoin:round;stroke-miterlimit:1.41421;">
    <g transform="matrix(1.70472,0,0,1.70472,5.24138,5.02799)">
        <path d="M1,0L1,2L2,2L2,1L6,1L6,3L5,3L6.5,5.5L8,3L7,3L7,0L1,0Z" style="fill:rgb(64,64,64);"/>
    </g>
    <g transform="matrix(1.70472,0,0,1.70472,5.24138,5.02799)">
        <path d="M1.5,2.5L0,5L1,5L1,8L7,8L7,6L6,6L6,7L2,7L2,5L3,5L1.5,2.5Z"/>
    </g>
</svg>
