<?xml version="1.0" encoding="UTF-8" standalone="no"?>
<!DOCTYPE svg PUBLIC "-//W3C//DTD SVG 1.1//EN" "http://www.w3.org/Graphics/SVG/1.1/DTD/svg11.dtd">
<svg width="100%" height="100%" viewBox="0 0 24 24" version="1.1" xmlns="http://www.w3.org/2000/svg" xmlns:xlink="http://www.w3.org/1999/xlink" xml:space="preserve" xmlns:serif="http://www.serif.com/" style="fill-rule:evenodd;clip-rule:evenodd;stroke-linejoin:round;stroke-miterlimit:1.41421;">
    <g transform="matrix(1.85668,0,0,1.85668,4.32165,4.7492)">
        <path d="M4,0C1.8,0 0,1.8 0,4C0,6.2 1.8,8 4,8C5.1,8 6.12,7.57 6.84,6.84L6.12,6.12C5.58,6.66 4.83,7 3.99,7C2.33,7 0.99,5.66 0.99,4C0.99,2.34 2.33,1 3.99,1C4.82,1 5.54,1.36 6.08,1.91L4.99,3L7.99,3L7.99,0L6.8,1.19C6.08,0.47 5.09,0 3.99,0L4,0Z" style="fill:rgb(40,40,40);fill-rule:nonzero;"/>
    </g>
</svg>
