<?xml version="1.0" encoding="UTF-8" standalone="no"?>
<!DOCTYPE svg PUBLIC "-//W3C//DTD SVG 1.1//EN" "http://www.w3.org/Graphics/SVG/1.1/DTD/svg11.dtd">
<svg width="100%" height="100%" viewBox="0 0 24 24" version="1.1" xmlns="http://www.w3.org/2000/svg" xmlns:xlink="http://www.w3.org/1999/xlink" xml:space="preserve" xmlns:serif="http://www.serif.com/" style="fill-rule:evenodd;clip-rule:evenodd;stroke-linejoin:round;stroke-miterlimit:1.41421;">
    <g transform="matrix(2.07346,0,0,2.07346,4.79296,3.60135)">
        <path d="M3.09,0C3.03,0 2.99,0.04 2.96,0.09L0.02,6.9C0,6.95 -0.01,7.03 -0.01,7.09L-0.01,7.9C-0.01,7.95 0.03,7.99 0.08,7.99L6.89,7.99C6.94,7.99 6.98,7.95 6.98,7.9L6.98,7.09C6.98,7.04 6.97,6.95 6.95,6.9L4.01,0.09C3.99,0.04 3.94,0 3.88,0L3.07,0L3.09,0ZM3,3L4,3L4,5L3,5L3,3ZM3,6L4,6L4,7L3,7L3,6Z" style="fill:rgb(255,153,17);fill-rule:nonzero;"/>
    </g>
</svg>
